<svg width="263" height="55" viewBox="0 0 263 55" fill="none" xmlns="http://www.w3.org/2000/svg">
<path d="M26.0734 6.00861C26.5224 4.62665 28.4776 4.62665 28.9266 6.00861L32.7496 17.7746C33.0843 18.8046 34.0442 19.502 35.1272 19.502H47.4987C48.9518 19.502 49.5559 21.3615 48.3804 22.2156L38.3716 29.4873C37.4954 30.1239 37.1288 31.2524 37.4635 32.2824L41.2865 44.0484C41.7355 45.4303 40.1538 46.5795 38.9782 45.7254L28.9695 38.4537C28.0932 37.8171 26.9068 37.8171 26.0305 38.4537L16.0218 45.7254C14.8462 46.5795 13.2645 45.4303 13.7135 44.0484L17.5365 32.2824C17.8712 31.2524 17.5046 30.1239 16.6284 29.4873L6.61964 22.2156C5.44406 21.3615 6.04823 19.502 7.50131 19.502H19.8728C20.9558 19.502 21.9157 18.8046 22.2504 17.7746L26.0734 6.00861Z" fill="#AAF1FF" stroke="black"/>
<path d="M78.0734 6.00861C78.5224 4.62665 80.4776 4.62665 80.9266 6.00861L84.7496 17.7746C85.0843 18.8046 86.0442 19.502 87.1272 19.502H99.4987C100.952 19.502 101.556 21.3615 100.38 22.2156L90.3716 29.4873C89.4954 30.1239 89.1288 31.2524 89.4635 32.2824L93.2865 44.0484C93.7355 45.4303 92.1538 46.5795 90.9782 45.7254L80.9695 38.4537C80.0932 37.8171 78.9068 37.8171 78.0305 38.4537L68.0218 45.7254C66.8462 46.5795 65.2645 45.4303 65.7135 44.0484L69.5365 32.2824C69.8712 31.2524 69.5046 30.1239 68.6284 29.4873L58.6196 22.2156C57.4441 21.3615 58.0482 19.502 59.5013 19.502H71.8728C72.9558 19.502 73.9157 18.8046 74.2504 17.7746L78.0734 6.00861Z" fill="#AAF1FF" stroke="black"/>
<path d="M130.073 6.00861C130.522 4.62665 132.478 4.62665 132.927 6.00861L136.75 17.7746C137.084 18.8046 138.044 19.502 139.127 19.502H151.499C152.952 19.502 153.556 21.3615 152.38 22.2156L142.372 29.4873C141.495 30.1239 141.129 31.2524 141.463 32.2824L145.286 44.0484C145.735 45.4303 144.154 46.5795 142.978 45.7254L132.969 38.4537C132.093 37.8171 130.907 37.8171 130.031 38.4537L120.022 45.7254C118.846 46.5795 117.265 45.4303 117.714 44.0484L121.537 32.2824C121.871 31.2524 121.505 30.1239 120.628 29.4873L110.62 22.2156C109.444 21.3615 110.048 19.502 111.501 19.502H123.873C124.956 19.502 125.916 18.8046 126.25 17.7746L130.073 6.00861Z" fill="#AAF1FF" stroke="black"/>
<path d="M182.073 6.00861C182.522 4.62665 184.478 4.62665 184.927 6.00861L188.75 17.7746C189.084 18.8046 190.044 19.502 191.127 19.502H203.499C204.952 19.502 205.556 21.3615 204.38 22.2156L194.372 29.4873C193.495 30.1239 193.129 31.2524 193.463 32.2824L197.286 44.0484C197.735 45.4303 196.154 46.5795 194.978 45.7254L184.969 38.4537C184.093 37.8171 182.907 37.8171 182.031 38.4537L172.022 45.7254C170.846 46.5795 169.265 45.4303 169.714 44.0484L173.537 32.2824C173.871 31.2524 173.505 30.1239 172.628 29.4873L162.62 22.2156C161.444 21.3615 162.048 19.502 163.501 19.502H175.873C176.956 19.502 177.916 18.8046 178.25 17.7746L182.073 6.00861Z" fill="#AAF1FF" stroke="black"/>
<path d="M234.073 6.00861C234.522 4.62665 236.478 4.62665 236.927 6.00861L240.75 17.7746C241.084 18.8046 242.044 19.502 243.127 19.502H255.499C256.952 19.502 257.556 21.3615 256.38 22.2156L246.372 29.4873C245.495 30.1239 245.129 31.2524 245.463 32.2824L249.286 44.0484C249.735 45.4303 248.154 46.5795 246.978 45.7254L236.969 38.4537C236.093 37.8171 234.907 37.8171 234.031 38.4537L224.022 45.7254C222.846 46.5795 221.265 45.4303 221.714 44.0484L225.537 32.2824C225.871 31.2524 225.505 30.1239 224.628 29.4873L214.62 22.2156C213.444 21.3615 214.048 19.502 215.501 19.502H227.873C228.956 19.502 229.916 18.8046 230.25 17.7746L234.073 6.00861Z" fill="#AAF1FF" stroke="black"/>
</svg>
