<?xml version="1.0" standalone="no"?>
<!DOCTYPE svg PUBLIC "-//W3C//DTD SVG 20010904//EN"
 "http://www.w3.org/TR/2001/REC-SVG-20010904/DTD/svg10.dtd">
<svg version="1.0" xmlns="http://www.w3.org/2000/svg"
 width="48.000000pt" height="48.000000pt" viewBox="0 0 48.000000 48.000000"
 preserveAspectRatio="xMidYMid meet">

<g transform="translate(0.000000,48.000000) scale(0.100000,-0.100000)"
fill="#000000" stroke="none">
<path d="M111 407 c-62 -22 -93 -98 -62 -156 13 -23 178 -171 192 -171 19 0
183 156 195 186 41 98 -80 189 -166 126 -30 -23 -30 -23 -57 -3 -39 27 -63 31
-102 18z m103 -28 l26 -20 26 20 c67 53 164 5 164 -80 0 -40 -5 -48 -61 -101
-33 -32 -76 -70 -95 -84 l-34 -26 -32 25 c-18 13 -61 51 -96 84 -57 54 -62 62
-62 101 0 86 97 134 164 81z"/>
</g>
</svg>
